<mxfile host="app.diagrams.net" modified="2024-05-10T10:49:48.018Z" agent="Mozilla/5.0 (X11; Linux x86_64) AppleWebKit/537.36 (KHTML, like Gecko) Chrome/124.0.0.0 Safari/537.36" etag="1p0Ypvu8-sP0KBRyrH2D" version="24.3.1" type="github" pages="2">
  <diagram name="CQRS" id="2lKPB6G0regEdDibs2Pk">
    <mxGraphModel dx="989" dy="520" grid="1" gridSize="10" guides="1" tooltips="1" connect="1" arrows="1" fold="1" page="1" pageScale="1" pageWidth="850" pageHeight="1100" math="0" shadow="0">
      <root>
        <mxCell id="0" />
        <mxCell id="1" parent="0" />
        <mxCell id="vrQK5T2YbZI1eICUe0Q2-1" value="" style="sketch=0;pointerEvents=1;shadow=0;dashed=0;html=1;strokeColor=none;fillColor=#434445;aspect=fixed;labelPosition=center;verticalLabelPosition=bottom;verticalAlign=top;align=center;outlineConnect=0;shape=mxgraph.vvd.monitor;" parent="1" vertex="1">
          <mxGeometry x="20" y="57" width="86.02" height="80" as="geometry" />
        </mxCell>
        <mxCell id="vrQK5T2YbZI1eICUe0Q2-2" value="API" style="text;html=1;align=center;verticalAlign=middle;resizable=0;points=[];autosize=1;strokeColor=none;fillColor=none;" parent="1" vertex="1">
          <mxGeometry x="43.010000000000005" y="67" width="40" height="30" as="geometry" />
        </mxCell>
        <mxCell id="vrQK5T2YbZI1eICUe0Q2-9" style="edgeStyle=orthogonalEdgeStyle;rounded=0;orthogonalLoop=1;jettySize=auto;html=1;entryX=0;entryY=0.5;entryDx=0;entryDy=0;" parent="1" source="vrQK5T2YbZI1eICUe0Q2-3" target="vrQK5T2YbZI1eICUe0Q2-4" edge="1">
          <mxGeometry relative="1" as="geometry" />
        </mxCell>
        <mxCell id="vrQK5T2YbZI1eICUe0Q2-3" value="Controller" style="rounded=0;whiteSpace=wrap;html=1;" parent="1" vertex="1">
          <mxGeometry x="180" y="59" width="120" height="60" as="geometry" />
        </mxCell>
        <mxCell id="vrQK5T2YbZI1eICUe0Q2-10" style="edgeStyle=orthogonalEdgeStyle;rounded=0;orthogonalLoop=1;jettySize=auto;html=1;" parent="1" source="vrQK5T2YbZI1eICUe0Q2-4" target="vrQK5T2YbZI1eICUe0Q2-5" edge="1">
          <mxGeometry relative="1" as="geometry" />
        </mxCell>
        <mxCell id="vrQK5T2YbZI1eICUe0Q2-4" value="Service" style="rounded=0;whiteSpace=wrap;html=1;" parent="1" vertex="1">
          <mxGeometry x="380" y="59" width="120" height="60" as="geometry" />
        </mxCell>
        <mxCell id="vrQK5T2YbZI1eICUe0Q2-5" value="Repository" style="rounded=0;whiteSpace=wrap;html=1;" parent="1" vertex="1">
          <mxGeometry x="590" y="59" width="120" height="60" as="geometry" />
        </mxCell>
        <mxCell id="vrQK5T2YbZI1eICUe0Q2-6" value="" style="html=1;verticalLabelPosition=bottom;align=center;labelBackgroundColor=#ffffff;verticalAlign=top;strokeWidth=1;strokeColor=#000000;shadow=0;dashed=0;shape=mxgraph.ios7.icons.data;" parent="1" vertex="1">
          <mxGeometry x="790" y="63" width="50" height="52" as="geometry" />
        </mxCell>
        <mxCell id="vrQK5T2YbZI1eICUe0Q2-7" value="DB" style="text;html=1;align=center;verticalAlign=middle;resizable=0;points=[];autosize=1;strokeColor=none;fillColor=none;" parent="1" vertex="1">
          <mxGeometry x="795" y="74" width="40" height="30" as="geometry" />
        </mxCell>
        <mxCell id="vrQK5T2YbZI1eICUe0Q2-12" style="edgeStyle=orthogonalEdgeStyle;rounded=0;orthogonalLoop=1;jettySize=auto;html=1;entryX=0.075;entryY=0.495;entryDx=0;entryDy=0;entryPerimeter=0;" parent="1" source="vrQK5T2YbZI1eICUe0Q2-5" target="vrQK5T2YbZI1eICUe0Q2-6" edge="1">
          <mxGeometry relative="1" as="geometry" />
        </mxCell>
        <mxCell id="vrQK5T2YbZI1eICUe0Q2-13" style="edgeStyle=orthogonalEdgeStyle;rounded=0;orthogonalLoop=1;jettySize=auto;html=1;entryX=-0.023;entryY=0.633;entryDx=0;entryDy=0;entryPerimeter=0;" parent="1" edge="1">
          <mxGeometry relative="1" as="geometry">
            <mxPoint x="106.01999999999998" y="87.98000000000002" as="sourcePoint" />
            <mxPoint x="177.24" y="87.98000000000002" as="targetPoint" />
          </mxGeometry>
        </mxCell>
        <mxCell id="vrQK5T2YbZI1eICUe0Q2-14" value="&lt;b&gt;Standard Structure&lt;/b&gt;" style="text;html=1;align=center;verticalAlign=middle;resizable=0;points=[];autosize=1;strokeColor=none;fillColor=none;" parent="1" vertex="1">
          <mxGeometry x="395" y="20" width="130" height="30" as="geometry" />
        </mxCell>
        <mxCell id="vrQK5T2YbZI1eICUe0Q2-15" value="GET&lt;div&gt;POST&lt;/div&gt;&lt;div&gt;PUT&lt;/div&gt;&lt;div&gt;DELETE&lt;/div&gt;&lt;div&gt;PATCH&lt;/div&gt;" style="text;html=1;align=left;verticalAlign=middle;resizable=0;points=[];autosize=1;strokeColor=none;fillColor=none;" parent="1" vertex="1">
          <mxGeometry x="22" y="135" width="70" height="90" as="geometry" />
        </mxCell>
        <mxCell id="uQFKMEbY_tLI6WAFVRx7-1" value="" style="sketch=0;pointerEvents=1;shadow=0;dashed=0;html=1;strokeColor=none;fillColor=#434445;aspect=fixed;labelPosition=center;verticalLabelPosition=bottom;verticalAlign=top;align=center;outlineConnect=0;shape=mxgraph.vvd.monitor;" parent="1" vertex="1">
          <mxGeometry x="30" y="343" width="86.02" height="80" as="geometry" />
        </mxCell>
        <mxCell id="uQFKMEbY_tLI6WAFVRx7-2" value="API" style="text;html=1;align=center;verticalAlign=middle;resizable=0;points=[];autosize=1;strokeColor=none;fillColor=none;" parent="1" vertex="1">
          <mxGeometry x="53.010000000000005" y="353" width="40" height="30" as="geometry" />
        </mxCell>
        <mxCell id="uQFKMEbY_tLI6WAFVRx7-3" value="" style="rounded=0;whiteSpace=wrap;html=1;" parent="1" vertex="1">
          <mxGeometry x="330" y="193" width="185" height="160" as="geometry" />
        </mxCell>
        <mxCell id="uQFKMEbY_tLI6WAFVRx7-4" value="&lt;b&gt;&lt;font style=&quot;font-size: 14px;&quot;&gt;Command API&lt;/font&gt;&lt;/b&gt;" style="text;html=1;align=center;verticalAlign=middle;resizable=0;points=[];autosize=1;strokeColor=none;fillColor=none;" parent="1" vertex="1">
          <mxGeometry x="330" y="193" width="120" height="30" as="geometry" />
        </mxCell>
        <mxCell id="uQFKMEbY_tLI6WAFVRx7-5" value="Command" style="rounded=0;whiteSpace=wrap;html=1;fillColor=#f5f5f5;fontColor=#333333;strokeColor=none;" parent="1" vertex="1">
          <mxGeometry x="350" y="223" width="140" height="30" as="geometry" />
        </mxCell>
        <mxCell id="uQFKMEbY_tLI6WAFVRx7-6" value="Command Handler" style="rounded=0;whiteSpace=wrap;html=1;fillColor=#f5f5f5;fontColor=#333333;strokeColor=none;" parent="1" vertex="1">
          <mxGeometry x="350" y="263" width="140" height="30" as="geometry" />
        </mxCell>
        <mxCell id="uQFKMEbY_tLI6WAFVRx7-7" value="Events Handler" style="rounded=0;whiteSpace=wrap;html=1;fillColor=#f5f5f5;fontColor=#333333;strokeColor=none;" parent="1" vertex="1">
          <mxGeometry x="350" y="306" width="140" height="30" as="geometry" />
        </mxCell>
        <mxCell id="uQFKMEbY_tLI6WAFVRx7-8" value="" style="rounded=0;whiteSpace=wrap;html=1;" parent="1" vertex="1">
          <mxGeometry x="333" y="393" width="185" height="160" as="geometry" />
        </mxCell>
        <mxCell id="uQFKMEbY_tLI6WAFVRx7-9" value="&lt;b&gt;&lt;font style=&quot;font-size: 14px;&quot;&gt;Query API&lt;/font&gt;&lt;/b&gt;" style="text;html=1;align=center;verticalAlign=middle;resizable=0;points=[];autosize=1;strokeColor=none;fillColor=none;" parent="1" vertex="1">
          <mxGeometry x="348" y="393" width="90" height="30" as="geometry" />
        </mxCell>
        <mxCell id="uQFKMEbY_tLI6WAFVRx7-10" value="Query" style="rounded=0;whiteSpace=wrap;html=1;fillColor=#f5f5f5;fontColor=#333333;strokeColor=none;" parent="1" vertex="1">
          <mxGeometry x="353" y="423" width="140" height="30" as="geometry" />
        </mxCell>
        <mxCell id="uQFKMEbY_tLI6WAFVRx7-11" value="Query Handler" style="rounded=0;whiteSpace=wrap;html=1;fillColor=#f5f5f5;fontColor=#333333;strokeColor=none;" parent="1" vertex="1">
          <mxGeometry x="353" y="463" width="140" height="30" as="geometry" />
        </mxCell>
        <mxCell id="uQFKMEbY_tLI6WAFVRx7-12" value="Events Handler" style="rounded=0;whiteSpace=wrap;html=1;fillColor=#f5f5f5;fontColor=#333333;strokeColor=none;" parent="1" vertex="1">
          <mxGeometry x="353" y="506" width="140" height="30" as="geometry" />
        </mxCell>
        <mxCell id="uQFKMEbY_tLI6WAFVRx7-14" value="" style="endArrow=classic;html=1;rounded=0;entryX=-0.006;entryY=0.433;entryDx=0;entryDy=0;entryPerimeter=0;" parent="1" target="uQFKMEbY_tLI6WAFVRx7-3" edge="1">
          <mxGeometry width="50" height="50" relative="1" as="geometry">
            <mxPoint x="116.02000000000001" y="373" as="sourcePoint" />
            <mxPoint x="166.02" y="323" as="targetPoint" />
          </mxGeometry>
        </mxCell>
        <mxCell id="uQFKMEbY_tLI6WAFVRx7-15" value="" style="endArrow=classic;html=1;rounded=0;entryX=0.004;entryY=0.508;entryDx=0;entryDy=0;entryPerimeter=0;" parent="1" target="uQFKMEbY_tLI6WAFVRx7-8" edge="1">
          <mxGeometry width="50" height="50" relative="1" as="geometry">
            <mxPoint x="116" y="373" as="sourcePoint" />
            <mxPoint x="330" y="473" as="targetPoint" />
          </mxGeometry>
        </mxCell>
        <mxCell id="uQFKMEbY_tLI6WAFVRx7-16" value="Event&amp;nbsp;&lt;div&gt;Store&lt;/div&gt;" style="shape=cylinder3;whiteSpace=wrap;html=1;boundedLbl=1;backgroundOutline=1;size=9;" parent="1" vertex="1">
          <mxGeometry x="715" y="286" width="65" height="67" as="geometry" />
        </mxCell>
        <mxCell id="uQFKMEbY_tLI6WAFVRx7-17" value="" style="html=1;verticalLabelPosition=bottom;align=center;labelBackgroundColor=#ffffff;verticalAlign=top;strokeWidth=1;strokeColor=#000000;shadow=0;dashed=0;shape=mxgraph.ios7.icons.data;" parent="1" vertex="1">
          <mxGeometry x="721" y="204" width="50" height="52" as="geometry" />
        </mxCell>
        <mxCell id="uQFKMEbY_tLI6WAFVRx7-19" value="" style="html=1;verticalLabelPosition=bottom;align=center;labelBackgroundColor=#ffffff;verticalAlign=top;strokeWidth=1;strokeColor=#000000;shadow=0;dashed=0;shape=mxgraph.ios7.icons.data;" parent="1" vertex="1">
          <mxGeometry x="719" y="444" width="50" height="52" as="geometry" />
        </mxCell>
        <mxCell id="uQFKMEbY_tLI6WAFVRx7-21" value="&lt;div&gt;POST&lt;/div&gt;&lt;div&gt;PUT&lt;/div&gt;&lt;div&gt;DELETE&lt;/div&gt;&lt;div&gt;PATCH&lt;/div&gt;" style="text;html=1;align=left;verticalAlign=middle;resizable=0;points=[];autosize=1;strokeColor=none;fillColor=none;" parent="1" vertex="1">
          <mxGeometry x="180" y="253" width="70" height="70" as="geometry" />
        </mxCell>
        <mxCell id="uQFKMEbY_tLI6WAFVRx7-22" value="GET" style="text;html=1;align=left;verticalAlign=middle;resizable=0;points=[];autosize=1;strokeColor=none;fillColor=none;" parent="1" vertex="1">
          <mxGeometry x="180" y="423" width="50" height="30" as="geometry" />
        </mxCell>
        <mxCell id="uQFKMEbY_tLI6WAFVRx7-23" value="Write DB" style="text;html=1;align=center;verticalAlign=middle;resizable=0;points=[];autosize=1;strokeColor=none;fillColor=none;" parent="1" vertex="1">
          <mxGeometry x="715" y="253" width="70" height="30" as="geometry" />
        </mxCell>
        <mxCell id="uQFKMEbY_tLI6WAFVRx7-24" value="Read DB" style="text;html=1;align=center;verticalAlign=middle;resizable=0;points=[];autosize=1;strokeColor=none;fillColor=none;" parent="1" vertex="1">
          <mxGeometry x="712" y="493" width="70" height="30" as="geometry" />
        </mxCell>
        <mxCell id="uQFKMEbY_tLI6WAFVRx7-25" value="" style="endArrow=classic;html=1;rounded=0;" parent="1" edge="1">
          <mxGeometry width="50" height="50" relative="1" as="geometry">
            <mxPoint x="520" y="233" as="sourcePoint" />
            <mxPoint x="720" y="233" as="targetPoint" />
          </mxGeometry>
        </mxCell>
        <mxCell id="uQFKMEbY_tLI6WAFVRx7-26" value="" style="endArrow=classic;html=1;rounded=0;" parent="1" edge="1">
          <mxGeometry width="50" height="50" relative="1" as="geometry">
            <mxPoint x="515" y="323" as="sourcePoint" />
            <mxPoint x="715" y="323" as="targetPoint" />
          </mxGeometry>
        </mxCell>
        <mxCell id="uQFKMEbY_tLI6WAFVRx7-27" value="" style="endArrow=classic;html=1;rounded=0;" parent="1" edge="1">
          <mxGeometry width="50" height="50" relative="1" as="geometry">
            <mxPoint x="518" y="472" as="sourcePoint" />
            <mxPoint x="718" y="472" as="targetPoint" />
          </mxGeometry>
        </mxCell>
        <mxCell id="uQFKMEbY_tLI6WAFVRx7-28" value="&lt;b&gt;CQRS Architecture&lt;/b&gt;" style="text;html=1;align=center;verticalAlign=middle;resizable=0;points=[];autosize=1;strokeColor=none;fillColor=none;" parent="1" vertex="1">
          <mxGeometry x="384" y="160" width="130" height="30" as="geometry" />
        </mxCell>
        <mxCell id="uQFKMEbY_tLI6WAFVRx7-29" value="&lt;b&gt;CQRS Command API Flow&lt;/b&gt;" style="text;html=1;align=center;verticalAlign=middle;resizable=0;points=[];autosize=1;strokeColor=none;fillColor=none;" parent="1" vertex="1">
          <mxGeometry x="355" y="570" width="170" height="30" as="geometry" />
        </mxCell>
        <mxCell id="uQFKMEbY_tLI6WAFVRx7-30" value="" style="sketch=0;pointerEvents=1;shadow=0;dashed=0;html=1;strokeColor=none;fillColor=#434445;aspect=fixed;labelPosition=center;verticalLabelPosition=bottom;verticalAlign=top;align=center;outlineConnect=0;shape=mxgraph.vvd.monitor;" parent="1" vertex="1">
          <mxGeometry x="40" y="639" width="86.02" height="80" as="geometry" />
        </mxCell>
        <mxCell id="uQFKMEbY_tLI6WAFVRx7-31" value="API" style="text;html=1;align=center;verticalAlign=middle;resizable=0;points=[];autosize=1;strokeColor=none;fillColor=none;" parent="1" vertex="1">
          <mxGeometry x="63.010000000000005" y="649" width="40" height="30" as="geometry" />
        </mxCell>
        <mxCell id="uQFKMEbY_tLI6WAFVRx7-32" value="Controller" style="rounded=0;whiteSpace=wrap;html=1;" parent="1" vertex="1">
          <mxGeometry x="241" y="639" width="98" height="51" as="geometry" />
        </mxCell>
        <mxCell id="uQFKMEbY_tLI6WAFVRx7-33" value="Command Gateway" style="rounded=0;whiteSpace=wrap;html=1;" parent="1" vertex="1">
          <mxGeometry x="449" y="639" width="98" height="51" as="geometry" />
        </mxCell>
        <mxCell id="uQFKMEbY_tLI6WAFVRx7-34" value="Aggregate" style="rounded=0;whiteSpace=wrap;html=1;" parent="1" vertex="1">
          <mxGeometry x="684" y="639" width="98" height="51" as="geometry" />
        </mxCell>
        <mxCell id="uQFKMEbY_tLI6WAFVRx7-35" value="Event&amp;nbsp;&lt;div&gt;Store&lt;/div&gt;" style="shape=cylinder3;whiteSpace=wrap;html=1;boundedLbl=1;backgroundOutline=1;size=7.5;" parent="1" vertex="1">
          <mxGeometry x="693" y="787.5" width="87" height="56" as="geometry" />
        </mxCell>
        <mxCell id="uQFKMEbY_tLI6WAFVRx7-36" value="" style="html=1;verticalLabelPosition=bottom;align=center;labelBackgroundColor=#ffffff;verticalAlign=top;strokeWidth=1;strokeColor=#000000;shadow=0;dashed=0;shape=mxgraph.ios7.icons.data;" parent="1" vertex="1">
          <mxGeometry x="48.01" y="797.5" width="50" height="52" as="geometry" />
        </mxCell>
        <mxCell id="uQFKMEbY_tLI6WAFVRx7-37" value="Events Handler" style="rounded=0;whiteSpace=wrap;html=1;" parent="1" vertex="1">
          <mxGeometry x="450" y="790" width="98" height="51" as="geometry" />
        </mxCell>
        <mxCell id="uQFKMEbY_tLI6WAFVRx7-38" value="Repository" style="rounded=0;whiteSpace=wrap;html=1;" parent="1" vertex="1">
          <mxGeometry x="241" y="790" width="98" height="51" as="geometry" />
        </mxCell>
        <mxCell id="uQFKMEbY_tLI6WAFVRx7-39" value="&lt;b&gt;&lt;font style=&quot;font-size: 14px;&quot;&gt;CreateProductCommand&lt;/font&gt;&lt;/b&gt;" style="text;html=1;align=center;verticalAlign=middle;resizable=0;points=[];autosize=1;strokeColor=none;fillColor=none;" parent="1" vertex="1">
          <mxGeometry x="305" y="719" width="190" height="30" as="geometry" />
        </mxCell>
        <mxCell id="uQFKMEbY_tLI6WAFVRx7-41" value="&lt;b&gt;&lt;font style=&quot;font-size: 14px;&quot;&gt;CreateProductCommand&lt;/font&gt;&lt;/b&gt;" style="text;html=1;align=center;verticalAlign=middle;resizable=0;points=[];autosize=1;strokeColor=none;fillColor=none;" parent="1" vertex="1">
          <mxGeometry x="529" y="590" width="190" height="30" as="geometry" />
        </mxCell>
        <mxCell id="uQFKMEbY_tLI6WAFVRx7-42" value="&lt;b&gt;&lt;font style=&quot;font-size: 14px;&quot;&gt;ProductCreatedEvent&lt;/font&gt;&lt;/b&gt;" style="text;html=1;align=center;verticalAlign=middle;resizable=0;points=[];autosize=1;strokeColor=none;fillColor=none;" parent="1" vertex="1">
          <mxGeometry x="535" y="719" width="170" height="30" as="geometry" />
        </mxCell>
        <mxCell id="uQFKMEbY_tLI6WAFVRx7-43" value="" style="endArrow=classic;html=1;rounded=0;" parent="1" edge="1">
          <mxGeometry width="50" height="50" relative="1" as="geometry">
            <mxPoint x="126.01999999999998" y="660" as="sourcePoint" />
            <mxPoint x="240" y="660" as="targetPoint" />
          </mxGeometry>
        </mxCell>
        <mxCell id="uQFKMEbY_tLI6WAFVRx7-44" value="" style="endArrow=classic;html=1;rounded=0;entryX=-0.008;entryY=0.398;entryDx=0;entryDy=0;entryPerimeter=0;" parent="1" target="uQFKMEbY_tLI6WAFVRx7-33" edge="1">
          <mxGeometry width="50" height="50" relative="1" as="geometry">
            <mxPoint x="339" y="660" as="sourcePoint" />
            <mxPoint x="440" y="660" as="targetPoint" />
          </mxGeometry>
        </mxCell>
        <mxCell id="uQFKMEbY_tLI6WAFVRx7-45" value="" style="endArrow=classic;html=1;rounded=0;" parent="1" edge="1">
          <mxGeometry width="50" height="50" relative="1" as="geometry">
            <mxPoint x="547" y="661" as="sourcePoint" />
            <mxPoint x="680" y="660" as="targetPoint" />
          </mxGeometry>
        </mxCell>
        <mxCell id="uQFKMEbY_tLI6WAFVRx7-46" value="" style="endArrow=classic;html=1;rounded=0;exitX=0.558;exitY=1.039;exitDx=0;exitDy=0;exitPerimeter=0;" parent="1" source="uQFKMEbY_tLI6WAFVRx7-34" edge="1">
          <mxGeometry width="50" height="50" relative="1" as="geometry">
            <mxPoint x="740" y="700" as="sourcePoint" />
            <mxPoint x="740" y="780" as="targetPoint" />
          </mxGeometry>
        </mxCell>
        <mxCell id="uQFKMEbY_tLI6WAFVRx7-47" value="" style="endArrow=classic;html=1;rounded=0;" parent="1" edge="1">
          <mxGeometry width="50" height="50" relative="1" as="geometry">
            <mxPoint x="690" y="820" as="sourcePoint" />
            <mxPoint x="550" y="820" as="targetPoint" />
          </mxGeometry>
        </mxCell>
        <mxCell id="uQFKMEbY_tLI6WAFVRx7-48" value="" style="endArrow=classic;html=1;rounded=0;" parent="1" edge="1">
          <mxGeometry width="50" height="50" relative="1" as="geometry">
            <mxPoint x="449" y="823" as="sourcePoint" />
            <mxPoint x="340" y="823" as="targetPoint" />
          </mxGeometry>
        </mxCell>
        <mxCell id="uQFKMEbY_tLI6WAFVRx7-49" value="" style="endArrow=classic;html=1;rounded=0;" parent="1" edge="1">
          <mxGeometry width="50" height="50" relative="1" as="geometry">
            <mxPoint x="241" y="823" as="sourcePoint" />
            <mxPoint x="101" y="823" as="targetPoint" />
          </mxGeometry>
        </mxCell>
        <mxCell id="uQFKMEbY_tLI6WAFVRx7-50" value="/products" style="text;html=1;align=center;verticalAlign=middle;resizable=0;points=[];autosize=1;strokeColor=none;fillColor=none;" parent="1" vertex="1">
          <mxGeometry x="140" y="628" width="70" height="30" as="geometry" />
        </mxCell>
        <mxCell id="uQFKMEbY_tLI6WAFVRx7-51" value="POST" style="text;html=1;align=center;verticalAlign=middle;resizable=0;points=[];autosize=1;strokeColor=none;fillColor=none;" parent="1" vertex="1">
          <mxGeometry x="140" y="664" width="60" height="30" as="geometry" />
        </mxCell>
        <mxCell id="uQFKMEbY_tLI6WAFVRx7-52" value="send" style="text;html=1;align=center;verticalAlign=middle;resizable=0;points=[];autosize=1;strokeColor=none;fillColor=none;" parent="1" vertex="1">
          <mxGeometry x="368" y="628" width="50" height="30" as="geometry" />
        </mxCell>
        <mxCell id="uQFKMEbY_tLI6WAFVRx7-53" value="" style="endArrow=none;html=1;rounded=0;" parent="1" edge="1">
          <mxGeometry width="50" height="50" relative="1" as="geometry">
            <mxPoint x="390" y="710" as="sourcePoint" />
            <mxPoint x="390" y="660" as="targetPoint" />
          </mxGeometry>
        </mxCell>
        <mxCell id="uQFKMEbY_tLI6WAFVRx7-54" value="" style="endArrow=none;html=1;rounded=0;" parent="1" edge="1">
          <mxGeometry width="50" height="50" relative="1" as="geometry">
            <mxPoint x="610" y="661" as="sourcePoint" />
            <mxPoint x="610" y="611" as="targetPoint" />
          </mxGeometry>
        </mxCell>
        <mxCell id="uQFKMEbY_tLI6WAFVRx7-55" value="handles" style="text;html=1;align=center;verticalAlign=middle;resizable=0;points=[];autosize=1;strokeColor=none;fillColor=none;" parent="1" vertex="1">
          <mxGeometry x="580" y="658" width="70" height="30" as="geometry" />
        </mxCell>
        <mxCell id="uQFKMEbY_tLI6WAFVRx7-56" value="publishes" style="text;html=1;align=center;verticalAlign=middle;resizable=0;points=[];autosize=1;strokeColor=none;fillColor=none;rotation=90;" parent="1" vertex="1">
          <mxGeometry x="720" y="719" width="70" height="30" as="geometry" />
        </mxCell>
        <mxCell id="uQFKMEbY_tLI6WAFVRx7-57" value="listens" style="text;html=1;align=center;verticalAlign=middle;resizable=0;points=[];autosize=1;strokeColor=none;fillColor=none;" parent="1" vertex="1">
          <mxGeometry x="584" y="818" width="60" height="30" as="geometry" />
        </mxCell>
        <mxCell id="uQFKMEbY_tLI6WAFVRx7-58" value="" style="endArrow=none;html=1;rounded=0;" parent="1" edge="1">
          <mxGeometry width="50" height="50" relative="1" as="geometry">
            <mxPoint x="611" y="819" as="sourcePoint" />
            <mxPoint x="611" y="750" as="targetPoint" />
          </mxGeometry>
        </mxCell>
        <mxCell id="uQFKMEbY_tLI6WAFVRx7-59" value="" style="endArrow=none;html=1;rounded=0;" parent="1" edge="1">
          <mxGeometry width="50" height="50" relative="1" as="geometry">
            <mxPoint x="691" y="734" as="sourcePoint" />
            <mxPoint x="739" y="734" as="targetPoint" />
          </mxGeometry>
        </mxCell>
        <mxCell id="flbyCanZl-e_JgoIbT8T-2" value="https://docs.axoniq.io/reference-guide/architecture-overview/event-sourcing" style="text;html=1;align=center;verticalAlign=middle;resizable=0;points=[];autosize=1;strokeColor=none;fillColor=none;" vertex="1" parent="1">
          <mxGeometry x="53.00999999999999" y="920" width="420" height="30" as="geometry" />
        </mxCell>
        <mxCell id="flbyCanZl-e_JgoIbT8T-3" value="Event Sourcing and CQRS Architecture overview" style="text;html=1;align=center;verticalAlign=middle;resizable=0;points=[];autosize=1;strokeColor=none;fillColor=none;" vertex="1" parent="1">
          <mxGeometry x="53.010000000000005" y="890" width="280" height="30" as="geometry" />
        </mxCell>
      </root>
    </mxGraphModel>
  </diagram>
  <diagram id="9_GEjSES-XIURFubGboF" name="SAGA-orchestration">
    <mxGraphModel dx="989" dy="520" grid="1" gridSize="10" guides="1" tooltips="1" connect="1" arrows="1" fold="1" page="1" pageScale="1" pageWidth="850" pageHeight="1100" math="0" shadow="0">
      <root>
        <mxCell id="0" />
        <mxCell id="1" parent="0" />
        <mxCell id="NAhrmkeucLqS3Z3KKrea-1" value="" style="sketch=0;pointerEvents=1;shadow=0;dashed=0;html=1;strokeColor=none;fillColor=#434445;aspect=fixed;labelPosition=center;verticalLabelPosition=bottom;verticalAlign=top;align=center;outlineConnect=0;shape=mxgraph.vvd.monitor;" vertex="1" parent="1">
          <mxGeometry x="20" y="210" width="86.02" height="80" as="geometry" />
        </mxCell>
        <mxCell id="NAhrmkeucLqS3Z3KKrea-2" value="API" style="text;html=1;align=center;verticalAlign=middle;resizable=0;points=[];autosize=1;strokeColor=none;fillColor=none;" vertex="1" parent="1">
          <mxGeometry x="43.010000000000005" y="220" width="40" height="30" as="geometry" />
        </mxCell>
        <mxCell id="NAhrmkeucLqS3Z3KKrea-3" value="" style="rounded=0;whiteSpace=wrap;html=1;" vertex="1" parent="1">
          <mxGeometry x="250" y="40" width="260" height="410" as="geometry" />
        </mxCell>
        <mxCell id="NAhrmkeucLqS3Z3KKrea-4" value="&lt;font style=&quot;font-size: 15px;&quot;&gt;Order Service&lt;/font&gt;" style="rounded=0;whiteSpace=wrap;html=1;" vertex="1" parent="1">
          <mxGeometry x="640" y="40" width="160" height="60" as="geometry" />
        </mxCell>
        <mxCell id="NAhrmkeucLqS3Z3KKrea-5" value="&lt;font style=&quot;font-size: 15px;&quot;&gt;Product Service&lt;/font&gt;" style="rounded=0;whiteSpace=wrap;html=1;" vertex="1" parent="1">
          <mxGeometry x="640" y="125" width="160" height="60" as="geometry" />
        </mxCell>
        <mxCell id="NAhrmkeucLqS3Z3KKrea-6" value="&lt;font style=&quot;font-size: 15px;&quot;&gt;Payment Service&lt;/font&gt;" style="rounded=0;whiteSpace=wrap;html=1;" vertex="1" parent="1">
          <mxGeometry x="640" y="214" width="160" height="60" as="geometry" />
        </mxCell>
        <mxCell id="NAhrmkeucLqS3Z3KKrea-7" value="&lt;font style=&quot;font-size: 15px;&quot;&gt;Shipment Service&lt;/font&gt;" style="rounded=0;whiteSpace=wrap;html=1;" vertex="1" parent="1">
          <mxGeometry x="640" y="303" width="160" height="60" as="geometry" />
        </mxCell>
        <mxCell id="NAhrmkeucLqS3Z3KKrea-8" value="&lt;font style=&quot;font-size: 15px;&quot;&gt;Notification Service&lt;/font&gt;" style="rounded=0;whiteSpace=wrap;html=1;" vertex="1" parent="1">
          <mxGeometry x="640" y="390" width="160" height="60" as="geometry" />
        </mxCell>
        <mxCell id="NAhrmkeucLqS3Z3KKrea-9" value="&lt;b&gt;&lt;font style=&quot;font-size: 13px;&quot;&gt;Orchestrator(Order Saga)&lt;/font&gt;&lt;/b&gt;" style="text;html=1;align=center;verticalAlign=middle;resizable=0;points=[];autosize=1;strokeColor=none;fillColor=none;" vertex="1" parent="1">
          <mxGeometry x="265" y="10" width="180" height="30" as="geometry" />
        </mxCell>
        <mxCell id="NAhrmkeucLqS3Z3KKrea-10" value="&lt;b&gt;&lt;font style=&quot;font-size: 19px;&quot;&gt;Saga Orchestration&lt;/font&gt;&lt;/b&gt;" style="text;html=1;align=center;verticalAlign=middle;resizable=0;points=[];autosize=1;strokeColor=none;fillColor=none;" vertex="1" parent="1">
          <mxGeometry x="30" y="20" width="200" height="40" as="geometry" />
        </mxCell>
        <mxCell id="NAhrmkeucLqS3Z3KKrea-11" value="&lt;b&gt;&lt;font color=&quot;#ff8000&quot; style=&quot;font-size: 15px;&quot;&gt;CreateOrderCommand&lt;/font&gt;&lt;/b&gt;" style="text;html=1;align=center;verticalAlign=middle;resizable=0;points=[];autosize=1;strokeColor=none;fillColor=none;" vertex="1" parent="1">
          <mxGeometry x="275" y="55" width="180" height="30" as="geometry" />
        </mxCell>
        <mxCell id="NAhrmkeucLqS3Z3KKrea-12" value="&lt;b&gt;&lt;font color=&quot;#ff8000&quot; style=&quot;font-size: 15px;&quot;&gt;BlockProductCommand&lt;/font&gt;&lt;/b&gt;" style="text;html=1;align=center;verticalAlign=middle;resizable=0;points=[];autosize=1;strokeColor=none;fillColor=none;" vertex="1" parent="1">
          <mxGeometry x="275" y="150" width="190" height="30" as="geometry" />
        </mxCell>
        <mxCell id="NAhrmkeucLqS3Z3KKrea-13" value="&lt;b&gt;&lt;font color=&quot;#ff8000&quot; style=&quot;font-size: 15px;&quot;&gt;ValidatePaymentCommand&lt;/font&gt;&lt;/b&gt;" style="text;html=1;align=center;verticalAlign=middle;resizable=0;points=[];autosize=1;strokeColor=none;fillColor=none;" vertex="1" parent="1">
          <mxGeometry x="270" y="260" width="220" height="30" as="geometry" />
        </mxCell>
        <mxCell id="NAhrmkeucLqS3Z3KKrea-14" value="&lt;b&gt;&lt;font color=&quot;#ff8000&quot; style=&quot;font-size: 15px;&quot;&gt;ShipOrderCommand&lt;/font&gt;&lt;/b&gt;" style="text;html=1;align=center;verticalAlign=middle;resizable=0;points=[];autosize=1;strokeColor=none;fillColor=none;" vertex="1" parent="1">
          <mxGeometry x="295" y="363" width="170" height="30" as="geometry" />
        </mxCell>
        <mxCell id="NAhrmkeucLqS3Z3KKrea-15" value="&lt;b&gt;&lt;font color=&quot;#00994d&quot; style=&quot;font-size: 15px;&quot;&gt;OrderCreatedEvent&lt;/font&gt;&lt;/b&gt;" style="text;html=1;align=center;verticalAlign=middle;resizable=0;points=[];autosize=1;strokeColor=none;fillColor=none;" vertex="1" parent="1">
          <mxGeometry x="290" y="95" width="160" height="30" as="geometry" />
        </mxCell>
        <mxCell id="NAhrmkeucLqS3Z3KKrea-16" value="&lt;b&gt;&lt;font color=&quot;#00994d&quot; style=&quot;font-size: 15px;&quot;&gt;ProductBlockedEvent&lt;/font&gt;&lt;/b&gt;" style="text;html=1;align=center;verticalAlign=middle;resizable=0;points=[];autosize=1;strokeColor=none;fillColor=none;" vertex="1" parent="1">
          <mxGeometry x="280" y="200" width="180" height="30" as="geometry" />
        </mxCell>
        <mxCell id="NAhrmkeucLqS3Z3KKrea-17" value="&lt;b&gt;&lt;font color=&quot;#00994d&quot; style=&quot;font-size: 15px;&quot;&gt;PaymentProcessedEvent&lt;/font&gt;&lt;/b&gt;" style="text;html=1;align=center;verticalAlign=middle;resizable=0;points=[];autosize=1;strokeColor=none;fillColor=none;" vertex="1" parent="1">
          <mxGeometry x="275" y="303" width="200" height="30" as="geometry" />
        </mxCell>
        <mxCell id="NAhrmkeucLqS3Z3KKrea-18" value="&lt;b&gt;&lt;font color=&quot;#00994d&quot; style=&quot;font-size: 15px;&quot;&gt;OrderShippedEvent&lt;/font&gt;&lt;/b&gt;" style="text;html=1;align=center;verticalAlign=middle;resizable=0;points=[];autosize=1;strokeColor=none;fillColor=none;" vertex="1" parent="1">
          <mxGeometry x="300" y="405" width="160" height="30" as="geometry" />
        </mxCell>
        <mxCell id="NAhrmkeucLqS3Z3KKrea-19" value="" style="endArrow=classic;html=1;rounded=0;" edge="1" parent="1">
          <mxGeometry width="50" height="50" relative="1" as="geometry">
            <mxPoint x="110" y="240" as="sourcePoint" />
            <mxPoint x="240" y="240" as="targetPoint" />
          </mxGeometry>
        </mxCell>
        <mxCell id="NAhrmkeucLqS3Z3KKrea-20" value="/orders" style="text;html=1;align=center;verticalAlign=middle;resizable=0;points=[];autosize=1;strokeColor=none;fillColor=none;" vertex="1" parent="1">
          <mxGeometry x="130" y="208" width="60" height="30" as="geometry" />
        </mxCell>
        <mxCell id="NAhrmkeucLqS3Z3KKrea-21" value="POST" style="text;html=1;align=center;verticalAlign=middle;resizable=0;points=[];autosize=1;strokeColor=none;fillColor=none;" vertex="1" parent="1">
          <mxGeometry x="130" y="238" width="60" height="30" as="geometry" />
        </mxCell>
        <mxCell id="NAhrmkeucLqS3Z3KKrea-22" value="" style="endArrow=classic;html=1;rounded=0;entryX=0;entryY=0.5;entryDx=0;entryDy=0;dashed=1;dashPattern=1 1;" edge="1" parent="1" target="NAhrmkeucLqS3Z3KKrea-4">
          <mxGeometry width="50" height="50" relative="1" as="geometry">
            <mxPoint x="450" y="70" as="sourcePoint" />
            <mxPoint x="630" y="70" as="targetPoint" />
          </mxGeometry>
        </mxCell>
        <mxCell id="NAhrmkeucLqS3Z3KKrea-24" value="" style="endArrow=classic;html=1;rounded=0;entryX=1;entryY=0.5;entryDx=0;entryDy=0;entryPerimeter=0;" edge="1" parent="1" target="NAhrmkeucLqS3Z3KKrea-15">
          <mxGeometry width="50" height="50" relative="1" as="geometry">
            <mxPoint x="640" y="70" as="sourcePoint" />
            <mxPoint x="690" y="20" as="targetPoint" />
          </mxGeometry>
        </mxCell>
        <mxCell id="NAhrmkeucLqS3Z3KKrea-25" value="" style="endArrow=classic;html=1;rounded=0;dashed=1;dashPattern=1 1;" edge="1" parent="1">
          <mxGeometry width="50" height="50" relative="1" as="geometry">
            <mxPoint x="460" y="172" as="sourcePoint" />
            <mxPoint x="640" y="150" as="targetPoint" />
          </mxGeometry>
        </mxCell>
        <mxCell id="NAhrmkeucLqS3Z3KKrea-26" value="" style="endArrow=classic;html=1;rounded=0;entryX=1.002;entryY=0.44;entryDx=0;entryDy=0;entryPerimeter=0;exitX=0;exitY=0.417;exitDx=0;exitDy=0;exitPerimeter=0;" edge="1" parent="1" source="NAhrmkeucLqS3Z3KKrea-5" target="NAhrmkeucLqS3Z3KKrea-16">
          <mxGeometry width="50" height="50" relative="1" as="geometry">
            <mxPoint x="630" y="160" as="sourcePoint" />
            <mxPoint x="460" y="212" as="targetPoint" />
          </mxGeometry>
        </mxCell>
        <mxCell id="NAhrmkeucLqS3Z3KKrea-27" value="" style="endArrow=classic;html=1;rounded=0;dashed=1;dashPattern=1 1;" edge="1" parent="1">
          <mxGeometry width="50" height="50" relative="1" as="geometry">
            <mxPoint x="460" y="269" as="sourcePoint" />
            <mxPoint x="640" y="247" as="targetPoint" />
          </mxGeometry>
        </mxCell>
        <mxCell id="NAhrmkeucLqS3Z3KKrea-28" value="" style="endArrow=classic;html=1;rounded=0;entryX=1.002;entryY=0.44;entryDx=0;entryDy=0;entryPerimeter=0;exitX=0;exitY=0.417;exitDx=0;exitDy=0;exitPerimeter=0;" edge="1" parent="1">
          <mxGeometry width="50" height="50" relative="1" as="geometry">
            <mxPoint x="640" y="247" as="sourcePoint" />
            <mxPoint x="460" y="310" as="targetPoint" />
          </mxGeometry>
        </mxCell>
        <mxCell id="NAhrmkeucLqS3Z3KKrea-29" value="" style="endArrow=classic;html=1;rounded=0;dashed=1;dashPattern=1 1;" edge="1" parent="1">
          <mxGeometry width="50" height="50" relative="1" as="geometry">
            <mxPoint x="456" y="378" as="sourcePoint" />
            <mxPoint x="640" y="330" as="targetPoint" />
          </mxGeometry>
        </mxCell>
        <mxCell id="NAhrmkeucLqS3Z3KKrea-30" value="" style="endArrow=classic;html=1;rounded=0;entryX=1.002;entryY=0.44;entryDx=0;entryDy=0;entryPerimeter=0;exitX=0;exitY=0.45;exitDx=0;exitDy=0;exitPerimeter=0;" edge="1" parent="1" source="NAhrmkeucLqS3Z3KKrea-7">
          <mxGeometry width="50" height="50" relative="1" as="geometry">
            <mxPoint x="636" y="356" as="sourcePoint" />
            <mxPoint x="456" y="419" as="targetPoint" />
          </mxGeometry>
        </mxCell>
      </root>
    </mxGraphModel>
  </diagram>
</mxfile>
